#!OML:ASF E:\acrobat2\Project_11_07_03\Capture day 1\Session 1\Acrobat.ASF
:FULLY-SPECIFIED
:DEGREES
225
root 12.0456 16.6137 0.182669 134.922 -77.9645 -111.798
lowerback 13.4371 5.90218 3.55868
upperback 5.44455 7.89927 0.483433
thorax -1.32262 3.83511 -2.5673
lowerneck -1.35809 -3.77465 -1.01851
upperneck -18.9072 -5.1396 4.03622
head -5.33117 -2.96384 1.66594
rclavicle -6.30147e-014 4.3832e-014
rhumerus -6.37515 -26.8951 -44.1274
rradius 22.2671
rwrist -9.34646
rhand -8.57539 -43.6553
rfingers 7.12502
rthumb 17.3551 -72.9004
lclavicle -6.30147e-014 4.3832e-014
lhumerus -7.14868 -9.08789 52.5704
lradius 39.9989
lwrist 18.9729
lhand -31.2296 -16.5442
lfingers 7.12502
lthumb -4.50482 13.3879
rfemur -37.9722 5.25799 -4.0435
rtibia 25.0507
rfoot -8.28001 -9.47197
rtoes -12.7596
lfemur -48.1225 14.9172 3.22011
ltibia 63.8844
lfoot -7.58778 -24.8015
ltoes 52.5518
226
root 12.0624 16.6968 0.5501 137.707 -76.4156 -114.242
lowerback 13.5654 5.61572 3.60838
upperback 5.40806 7.53791 0.910737
thorax -1.50653 3.64078 -2.12741
lowerneck -0.259801 -3.75878 -2.1798
upperneck -20.5131 -4.97259 5.55226
head -5.94595 -2.9522 2.39912
rclavicle 4.14963e-014 -1.94809e-014
rhumerus -10.5399 -31.9991 -37.0592
rradius 22.192
rwrist -7.91714
rhand -7.20538 -43.2676
rfingers 7.12502
rthumb 18.6733 -72.3913
lclavicle 4.14963e-014 -1.94809e-014
lhumerus -1.56477 -9.00097 51.95
lradius 40.0248
lwrist 19.1036
lhand -31.3494 -19.0537
lfingers 7.12502
lthumb -4.62054 10.8759
rfemur -36.0332 5.55718 -5.62831
rtibia 19.3832
rfoot -0.984572 -8.47556
rtoes -20.9608
lfemur -48.1617 15.4847 2.92875
ltibia 63.8108
lfoot -9.65677 -24.3266
ltoes 50.6871
227
root 12.0633 16.7771 0.900819 139.758 -74.823 -116.081
lowerback 13.5247 5.16282 3.55185
upperback 5.41149 6.93633 1.23413
thorax -1.56521 3.33262 -1.68255
lowerneck 0.834525 -3.53506 -2.77026
upperneck -21.8722 -4.585 6.46224
head -6.53974 -2.83432 2.84369
rclavicle 4.1546e-014 1.0138e-014
rhumerus -14.4787 -35.372 -30.3277
rradius 22.8345
rwrist -10.1451
rhand -7.53735 -43.4469
rfingers 7.12502
rthumb 18.354 -72.601
lclavicle 4.1546e-014 1.0138e-014
lhumerus 3.71589 -8.89532 50.4938
lradius 40.5975
lwrist 19.9794
lhand -30.7149 -19.2356
lfingers 7.12502
lthumb -4.00781 10.7064
rfemur -34.0274 7.35066 -7.9886
rtibia 14.1183
rfoot 3.4999 -8.06084
rtoes -9.87217
lfemur -47.9411 16.1382 2.78096
ltibia 63.6439
lfoot -11.5502 -23.7226
ltoes 48.8991
228
root 12.063 16.8586 1.2327 141.23 -73.1493 -117.278
lowerback 13.3599 4.69011 3.59266
upperback 5.38248 6.31817 1.45
thorax -1.55955 3.02238 -1.38822
lowerneck 1.62038 -3.42833 -2.40618
upperneck -22.8682 -4.3644 6.9203
head -7.00706 -2.83808 2.97782
rclavicle 4.49253e-014 4.69132e-014
rhumerus -18.5012 -37.0915 -23.8023
rradius 24.1004
rwrist -16.1619
rhand -8.58926 -43.6703
rfingers 7.12502
rthumb 17.3418 -72.9166
lclavicle 4.49253e-014 4.69132e-014
lhumerus 9.11313 -8.86564 48.4465
lradius 41.1299
lwrist 19.4809
lhand -31.1776 -20.0535
lfingers 7.12502
lthumb -4.45465 9.87961
rfemur -32.365 9.04234 -9.81005
rtibia 10.001
rfoot 3.42664 -7.86455
rtoes -9.43293
lfemur -47.7828 17.0883 2.67747
ltibia 63.4909
lfoot -12.8349 -23.2938
ltoes 48.0935
229
root 12.0664 16.9358 1.53826 141.419 -71.1869 -117.348
lowerback 13.3552 4.17851 3.83775
upperback 5.34294 5.67956 1.81096
thorax -1.64047 2.69821 -1.06744
lowerneck 1.74121 -3.40188 -3.23377
upperneck -22.7749 -4.17635 8.22327
head -6.94515 -2.80188 3.53223
rclavicle -6.36111e-015 4.77083e-015
rhumerus -23.1132 -40.7307 -16.825
rradius 25.8279
rwrist -19.7832
rhand -9.09286 -42.1507
rfingers 7.12502
rthumb 16.8571 -71.439
lclavicle -6.36111e-015 4.77083e-015
lhumerus 14.4601 -8.44626 46.1949
lradius 41.7092
lwrist 18.9311
lhand -30.9891 -21.7363
lfingers 7.12502
lthumb -4.27261 8.20057
rfemur -31.6564 10.0072 -10.6026
rtibia 8.68658
rfoot 0.143557 -8.71562
rtoes 0.698201
lfemur -47.3331 18.2625 3.1236
ltibia 63.2219
lfoot -13.115 -23.2027
ltoes 49.0008
230
root 12.0676 17.0096 1.83511 141.663 -69.3551 -117.628
lowerback 13.35 3.50971 4.02012
upperback 5.33197 4.82318 2.04715
thorax -1.69028 2.26877 -0.808516
lowerneck 1.89933 -3.4643 -3.26849
upperneck -22.6094 -4.11141 9.23777
head -6.8906 -2.86804 3.86561
rclavicle -2.94201e-014 1.90833e-014
rhumerus -27.0762 -42.6154 -10.926
rradius 28.3607
rwrist -26.194
rhand -11.6157 -43.7284
rfingers 7.12502
rthumb 14.4273 -73.2069
lclavicle -2.94201e-014 1.90833e-014
lhumerus 19.6565 -7.57513 43.7743
lradius 42.1588
lwrist 19.1524
lhand -31.1423 -23.27
lfingers 7.12502
lthumb -4.42057 6.66382
rfemur -31.3279 7.61514 -9.5495
rtibia 10.047
rfoot -0.011098 -9.94516
rtoes -13.0401
lfemur -46.645 19.2036 3.5218
ltibia 62.7322
lfoot -13.5022 -22.9473
ltoes 49.665
231
root 12.0676 17.0839 2.13053 142.424 -67.6566 -118.492
lowerback 13.3017 2.74101 4.17986
upperback 5.30423 3.8313 2.03321
thorax -1.72029 1.77851 -0.77437
lowerneck 2.1937 -3.53867 -3.50433
upperneck -22.3543 -4.03714 10.5241
head -6.8182 -2.93591 4.32256
rclavicle 1.90833e-014 1.74931e-014
rhumerus -30.7072 -44.9402 -5.20826
rradius 30.7214
rwrist -31.632
rhand -13.3351 -42.4885
rfingers 7.12502
rthumb 12.7702 -72.078
lclavicle 1.90833e-014 1.74931e-014
lhumerus 24.754 -6.17944 41.3469
lradius 42.7536
lwrist 19.4635
lhand -29.4716 -21.5893
lfingers 7.12502
lthumb -2.80714 8.37196
rfemur -31.3211 6.54051 -9.69547
rtibia 12.3834
rfoot -4.01314 -12.3809
rtoes -5.37912
lfemur -45.861 19.9223 3.7192
ltibia 62.0728
lfoot -14.8592 -22.0514
ltoes 48.4592
